<svg width="200" height="64" viewBox="0 0 200 64" fill="none" xmlns="http://www.w3.org/2000/svg">
  <!-- Logo -->
  <g transform="translate(0 0)">
    <rect width="64" height="64" rx="8" fill="url(#gradient)" transform="rotate(45 32 32)"/>
    <rect x="8" y="8" width="48" height="48" rx="8" fill="#0D1117" transform="rotate(45 32 32)"/>
    <g transform="translate(32 32) rotate(-45) translate(-16 -16)">
      <rect width="12" height="12" fill="#00FF9D"/>
      <rect x="20" width="12" height="12" fill="#2D7FF9"/>
      <rect y="20" width="12" height="12" fill="#2D7FF9"/>
      <rect x="20" y="20" width="12" height="12" fill="#00FF9D"/>
    </g>
    <rect x="0" y="30" width="64" height="4" fill="url(#circuit1)" transform="rotate(45 32 32)"/>
    <rect x="0" y="30" width="64" height="4" fill="url(#circuit2)" transform="rotate(-45 32 32)"/>
  </g>
  
  <!-- Text -->
  <g transform="translate(80 16)">
    <text x="0" y="32" font-family="Clash Display, sans-serif" font-size="40" font-weight="700">
      <tspan fill="url(#textGradient)">ai</tspan>
      <tspan fill="white">Hash</tspan>
    </text>
  </g>
  
  <!-- Gradients -->
  <defs>
    <linearGradient id="gradient" x1="0" y1="0" x2="64" y2="64">
      <stop offset="0%" stop-color="#00FF9D"/>
      <stop offset="100%" stop-color="#2D7FF9"/>
    </linearGradient>
    <linearGradient id="circuit1" x1="0" y1="32" x2="64" y2="32">
      <stop offset="0%" stop-color="#00FF9D" stop-opacity="0"/>
      <stop offset="50%" stop-color="#00FF9D" stop-opacity="0.5"/>
      <stop offset="100%" stop-color="#00FF9D" stop-opacity="0"/>
    </linearGradient>
    <linearGradient id="circuit2" x1="0" y1="32" x2="64" y2="32">
      <stop offset="0%" stop-color="#2D7FF9" stop-opacity="0"/>
      <stop offset="50%" stop-color="#2D7FF9" stop-opacity="0.5"/>
      <stop offset="100%" stop-color="#2D7FF9" stop-opacity="0"/>
    </linearGradient>
    <linearGradient id="textGradient" x1="0" y1="16" x2="40" y2="16">
      <stop offset="0%" stop-color="#00FF9D"/>
      <stop offset="100%" stop-color="#2D7FF9"/>
    </linearGradient>
  </defs>
</svg>